<mxfile host="app.diagrams.net" modified="2023-04-19T21:29:14.616Z" agent="Mozilla/5.0 (Windows NT 10.0; Win64; x64) AppleWebKit/537.36 (KHTML, like Gecko) Chrome/112.0.0.0 Safari/537.36 Edg/112.0.1722.48" etag="C79gCt7YYtZUFNVGn2Re" version="21.1.8" type="device">
  <diagram name="PÃ¡gina-1" id="tqAukW0xZtE-mX-S90wy">
    <mxGraphModel dx="2294" dy="807" grid="1" gridSize="10" guides="1" tooltips="1" connect="1" arrows="1" fold="1" page="1" pageScale="1" pageWidth="827" pageHeight="1169" math="0" shadow="0">
      <root>
        <mxCell id="0" />
        <mxCell id="1" parent="0" />
        <mxCell id="qsIrMADFIpEWMbKTU3-V-4" value="Endereco" style="swimlane;fontStyle=1;align=center;verticalAlign=top;childLayout=stackLayout;horizontal=1;startSize=26;horizontalStack=0;resizeParent=1;resizeParentMax=0;resizeLast=0;collapsible=1;marginBottom=0;whiteSpace=wrap;html=1;" parent="1" vertex="1">
          <mxGeometry x="510" y="326" width="220" height="182" as="geometry" />
        </mxCell>
        <mxCell id="qsIrMADFIpEWMbKTU3-V-5" value="PK Id: INT" style="text;strokeColor=none;fillColor=none;align=left;verticalAlign=top;spacingLeft=4;spacingRight=4;overflow=hidden;rotatable=0;points=[[0,0.5],[1,0.5]];portConstraint=eastwest;whiteSpace=wrap;html=1;" parent="qsIrMADFIpEWMbKTU3-V-4" vertex="1">
          <mxGeometry y="26" width="220" height="26" as="geometry" />
        </mxCell>
        <mxCell id="qsIrMADFIpEWMbKTU3-V-11" value="&amp;nbsp; &amp;nbsp; &amp;nbsp; CEP: VARCHAR" style="text;strokeColor=none;fillColor=none;align=left;verticalAlign=top;spacingLeft=4;spacingRight=4;overflow=hidden;rotatable=0;points=[[0,0.5],[1,0.5]];portConstraint=eastwest;whiteSpace=wrap;html=1;" parent="qsIrMADFIpEWMbKTU3-V-4" vertex="1">
          <mxGeometry y="52" width="220" height="26" as="geometry" />
        </mxCell>
        <mxCell id="qsIrMADFIpEWMbKTU3-V-9" value="&amp;nbsp; &amp;nbsp; &amp;nbsp; Rua: VARCHAR" style="text;strokeColor=none;fillColor=none;align=left;verticalAlign=top;spacingLeft=4;spacingRight=4;overflow=hidden;rotatable=0;points=[[0,0.5],[1,0.5]];portConstraint=eastwest;whiteSpace=wrap;html=1;" parent="qsIrMADFIpEWMbKTU3-V-4" vertex="1">
          <mxGeometry y="78" width="220" height="26" as="geometry" />
        </mxCell>
        <mxCell id="qsIrMADFIpEWMbKTU3-V-10" value="&amp;nbsp; &amp;nbsp; &amp;nbsp; Bairro: VARCHAR" style="text;strokeColor=none;fillColor=none;align=left;verticalAlign=top;spacingLeft=4;spacingRight=4;overflow=hidden;rotatable=0;points=[[0,0.5],[1,0.5]];portConstraint=eastwest;whiteSpace=wrap;html=1;" parent="qsIrMADFIpEWMbKTU3-V-4" vertex="1">
          <mxGeometry y="104" width="220" height="26" as="geometry" />
        </mxCell>
        <mxCell id="qsIrMADFIpEWMbKTU3-V-12" value="&amp;nbsp; &amp;nbsp; &amp;nbsp; Numero: INT" style="text;strokeColor=none;fillColor=none;align=left;verticalAlign=top;spacingLeft=4;spacingRight=4;overflow=hidden;rotatable=0;points=[[0,0.5],[1,0.5]];portConstraint=eastwest;whiteSpace=wrap;html=1;" parent="qsIrMADFIpEWMbKTU3-V-4" vertex="1">
          <mxGeometry y="130" width="220" height="26" as="geometry" />
        </mxCell>
        <mxCell id="qsIrMADFIpEWMbKTU3-V-13" value="&amp;nbsp; &amp;nbsp; &amp;nbsp; Complemento: VARCHAR" style="text;strokeColor=none;fillColor=none;align=left;verticalAlign=top;spacingLeft=4;spacingRight=4;overflow=hidden;rotatable=0;points=[[0,0.5],[1,0.5]];portConstraint=eastwest;whiteSpace=wrap;html=1;" parent="qsIrMADFIpEWMbKTU3-V-4" vertex="1">
          <mxGeometry y="156" width="220" height="26" as="geometry" />
        </mxCell>
        <mxCell id="qsIrMADFIpEWMbKTU3-V-14" value="Criminoso" style="swimlane;fontStyle=1;align=center;verticalAlign=top;childLayout=stackLayout;horizontal=1;startSize=26;horizontalStack=0;resizeParent=1;resizeParentMax=0;resizeLast=0;collapsible=1;marginBottom=0;whiteSpace=wrap;html=1;" parent="1" vertex="1">
          <mxGeometry x="120" y="40" width="266" height="468" as="geometry" />
        </mxCell>
        <mxCell id="qsIrMADFIpEWMbKTU3-V-15" value="PK Id: INT" style="text;strokeColor=none;fillColor=none;align=left;verticalAlign=top;spacingLeft=4;spacingRight=4;overflow=hidden;rotatable=0;points=[[0,0.5],[1,0.5]];portConstraint=eastwest;whiteSpace=wrap;html=1;" parent="qsIrMADFIpEWMbKTU3-V-14" vertex="1">
          <mxGeometry y="26" width="266" height="26" as="geometry" />
        </mxCell>
        <mxCell id="qsIrMADFIpEWMbKTU3-V-19" value="&amp;nbsp; &amp;nbsp; &amp;nbsp; Nome: VARCHAR" style="text;strokeColor=none;fillColor=none;align=left;verticalAlign=top;spacingLeft=4;spacingRight=4;overflow=hidden;rotatable=0;points=[[0,0.5],[1,0.5]];portConstraint=eastwest;whiteSpace=wrap;html=1;" parent="qsIrMADFIpEWMbKTU3-V-14" vertex="1">
          <mxGeometry y="52" width="266" height="26" as="geometry" />
        </mxCell>
        <mxCell id="qsIrMADFIpEWMbKTU3-V-20" value="&amp;nbsp; &amp;nbsp; &amp;nbsp; Pai: VARCHAR" style="text;strokeColor=none;fillColor=none;align=left;verticalAlign=top;spacingLeft=4;spacingRight=4;overflow=hidden;rotatable=0;points=[[0,0.5],[1,0.5]];portConstraint=eastwest;whiteSpace=wrap;html=1;" parent="qsIrMADFIpEWMbKTU3-V-14" vertex="1">
          <mxGeometry y="78" width="266" height="26" as="geometry" />
        </mxCell>
        <mxCell id="qsIrMADFIpEWMbKTU3-V-21" value="&amp;nbsp; &amp;nbsp; &amp;nbsp; Mae: VARCHAR" style="text;strokeColor=none;fillColor=none;align=left;verticalAlign=top;spacingLeft=4;spacingRight=4;overflow=hidden;rotatable=0;points=[[0,0.5],[1,0.5]];portConstraint=eastwest;whiteSpace=wrap;html=1;" parent="qsIrMADFIpEWMbKTU3-V-14" vertex="1">
          <mxGeometry y="104" width="266" height="26" as="geometry" />
        </mxCell>
        <mxCell id="qsIrMADFIpEWMbKTU3-V-25" value="&amp;nbsp; &amp;nbsp; &amp;nbsp; DataDeNascimento: DATE" style="text;strokeColor=none;fillColor=none;align=left;verticalAlign=top;spacingLeft=4;spacingRight=4;overflow=hidden;rotatable=0;points=[[0,0.5],[1,0.5]];portConstraint=eastwest;whiteSpace=wrap;html=1;" parent="qsIrMADFIpEWMbKTU3-V-14" vertex="1">
          <mxGeometry y="130" width="266" height="26" as="geometry" />
        </mxCell>
        <mxCell id="qsIrMADFIpEWMbKTU3-V-94" value="&amp;nbsp; &amp;nbsp; &amp;nbsp; Obito: BOOL" style="text;strokeColor=none;fillColor=none;align=left;verticalAlign=top;spacingLeft=4;spacingRight=4;overflow=hidden;rotatable=0;points=[[0,0.5],[1,0.5]];portConstraint=eastwest;whiteSpace=wrap;html=1;" parent="qsIrMADFIpEWMbKTU3-V-14" vertex="1">
          <mxGeometry y="156" width="266" height="26" as="geometry" />
        </mxCell>
        <mxCell id="qsIrMADFIpEWMbKTU3-V-95" value="&amp;nbsp; &amp;nbsp; &amp;nbsp; Foragido: BOOL" style="text;strokeColor=none;fillColor=none;align=left;verticalAlign=top;spacingLeft=4;spacingRight=4;overflow=hidden;rotatable=0;points=[[0,0.5],[1,0.5]];portConstraint=eastwest;whiteSpace=wrap;html=1;" parent="qsIrMADFIpEWMbKTU3-V-14" vertex="1">
          <mxGeometry y="182" width="266" height="26" as="geometry" />
        </mxCell>
        <mxCell id="qsIrMADFIpEWMbKTU3-V-26" value="&amp;nbsp; &amp;nbsp; &amp;nbsp; RG: VARCHAR" style="text;strokeColor=none;fillColor=none;align=left;verticalAlign=top;spacingLeft=4;spacingRight=4;overflow=hidden;rotatable=0;points=[[0,0.5],[1,0.5]];portConstraint=eastwest;whiteSpace=wrap;html=1;" parent="qsIrMADFIpEWMbKTU3-V-14" vertex="1">
          <mxGeometry y="208" width="266" height="26" as="geometry" />
        </mxCell>
        <mxCell id="qsIrMADFIpEWMbKTU3-V-27" value="&amp;nbsp; &amp;nbsp; &amp;nbsp; Naturalidade: VARCHAR" style="text;strokeColor=none;fillColor=none;align=left;verticalAlign=top;spacingLeft=4;spacingRight=4;overflow=hidden;rotatable=0;points=[[0,0.5],[1,0.5]];portConstraint=eastwest;whiteSpace=wrap;html=1;" parent="qsIrMADFIpEWMbKTU3-V-14" vertex="1">
          <mxGeometry y="234" width="266" height="26" as="geometry" />
        </mxCell>
        <mxCell id="qsIrMADFIpEWMbKTU3-V-28" value="&amp;nbsp; &amp;nbsp; &amp;nbsp; Nacionalidade: VARCHAR" style="text;strokeColor=none;fillColor=none;align=left;verticalAlign=top;spacingLeft=4;spacingRight=4;overflow=hidden;rotatable=0;points=[[0,0.5],[1,0.5]];portConstraint=eastwest;whiteSpace=wrap;html=1;" parent="qsIrMADFIpEWMbKTU3-V-14" vertex="1">
          <mxGeometry y="260" width="266" height="26" as="geometry" />
        </mxCell>
        <mxCell id="qsIrMADFIpEWMbKTU3-V-29" value="FK estado_civil_id: INT" style="text;strokeColor=none;fillColor=none;align=left;verticalAlign=top;spacingLeft=4;spacingRight=4;overflow=hidden;rotatable=0;points=[[0,0.5],[1,0.5]];portConstraint=eastwest;whiteSpace=wrap;html=1;" parent="qsIrMADFIpEWMbKTU3-V-14" vertex="1">
          <mxGeometry y="286" width="266" height="26" as="geometry" />
        </mxCell>
        <mxCell id="qsIrMADFIpEWMbKTU3-V-30" value="FK grau_de_escolaridade_id: INT" style="text;strokeColor=none;fillColor=none;align=left;verticalAlign=top;spacingLeft=4;spacingRight=4;overflow=hidden;rotatable=0;points=[[0,0.5],[1,0.5]];portConstraint=eastwest;whiteSpace=wrap;html=1;" parent="qsIrMADFIpEWMbKTU3-V-14" vertex="1">
          <mxGeometry y="312" width="266" height="26" as="geometry" />
        </mxCell>
        <mxCell id="qsIrMADFIpEWMbKTU3-V-31" value="&amp;nbsp; &amp;nbsp; &amp;nbsp; LocalDeTrabalho: VARCHAR" style="text;strokeColor=none;fillColor=none;align=left;verticalAlign=top;spacingLeft=4;spacingRight=4;overflow=hidden;rotatable=0;points=[[0,0.5],[1,0.5]];portConstraint=eastwest;whiteSpace=wrap;html=1;" parent="qsIrMADFIpEWMbKTU3-V-14" vertex="1">
          <mxGeometry y="338" width="266" height="26" as="geometry" />
        </mxCell>
        <mxCell id="qsIrMADFIpEWMbKTU3-V-32" value="&amp;nbsp; &amp;nbsp; &amp;nbsp; Profissao: VARCHAR" style="text;strokeColor=none;fillColor=none;align=left;verticalAlign=top;spacingLeft=4;spacingRight=4;overflow=hidden;rotatable=0;points=[[0,0.5],[1,0.5]];portConstraint=eastwest;whiteSpace=wrap;html=1;" parent="qsIrMADFIpEWMbKTU3-V-14" vertex="1">
          <mxGeometry y="364" width="266" height="26" as="geometry" />
        </mxCell>
        <mxCell id="qsIrMADFIpEWMbKTU3-V-33" value="FK genero_id: VARCHAR" style="text;strokeColor=none;fillColor=none;align=left;verticalAlign=top;spacingLeft=4;spacingRight=4;overflow=hidden;rotatable=0;points=[[0,0.5],[1,0.5]];portConstraint=eastwest;whiteSpace=wrap;html=1;" parent="qsIrMADFIpEWMbKTU3-V-14" vertex="1">
          <mxGeometry y="390" width="266" height="26" as="geometry" />
        </mxCell>
        <mxCell id="qsIrMADFIpEWMbKTU3-V-34" value="FK&amp;nbsp; Endereco_ID: INT" style="text;strokeColor=none;fillColor=none;align=left;verticalAlign=top;spacingLeft=4;spacingRight=4;overflow=hidden;rotatable=0;points=[[0,0.5],[1,0.5]];portConstraint=eastwest;whiteSpace=wrap;html=1;" parent="qsIrMADFIpEWMbKTU3-V-14" vertex="1">
          <mxGeometry y="416" width="266" height="26" as="geometry" />
        </mxCell>
        <mxCell id="qsIrMADFIpEWMbKTU3-V-35" value="FK&amp;nbsp; Aparencia_ID: INT" style="text;strokeColor=none;fillColor=none;align=left;verticalAlign=top;spacingLeft=4;spacingRight=4;overflow=hidden;rotatable=0;points=[[0,0.5],[1,0.5]];portConstraint=eastwest;whiteSpace=wrap;html=1;" parent="qsIrMADFIpEWMbKTU3-V-14" vertex="1">
          <mxGeometry y="442" width="266" height="26" as="geometry" />
        </mxCell>
        <mxCell id="qsIrMADFIpEWMbKTU3-V-38" style="edgeStyle=orthogonalEdgeStyle;rounded=0;orthogonalLoop=1;jettySize=auto;html=1;exitX=0;exitY=0.5;exitDx=0;exitDy=0;entryX=1;entryY=0.5;entryDx=0;entryDy=0;endArrow=ERone;endFill=0;startArrow=ERone;startFill=0;" parent="1" source="qsIrMADFIpEWMbKTU3-V-5" target="qsIrMADFIpEWMbKTU3-V-34" edge="1">
          <mxGeometry relative="1" as="geometry" />
        </mxCell>
        <mxCell id="qsIrMADFIpEWMbKTU3-V-43" value="Aparencia" style="swimlane;fontStyle=1;align=center;verticalAlign=top;childLayout=stackLayout;horizontal=1;startSize=26;horizontalStack=0;resizeParent=1;resizeParentMax=0;resizeLast=0;collapsible=1;marginBottom=0;whiteSpace=wrap;html=1;" parent="1" vertex="1">
          <mxGeometry x="510" y="590" width="230" height="286" as="geometry" />
        </mxCell>
        <mxCell id="qsIrMADFIpEWMbKTU3-V-44" value="PK Id: INT" style="text;strokeColor=none;fillColor=none;align=left;verticalAlign=top;spacingLeft=4;spacingRight=4;overflow=hidden;rotatable=0;points=[[0,0.5],[1,0.5]];portConstraint=eastwest;whiteSpace=wrap;html=1;" parent="qsIrMADFIpEWMbKTU3-V-43" vertex="1">
          <mxGeometry y="26" width="230" height="26" as="geometry" />
        </mxCell>
        <mxCell id="qsIrMADFIpEWMbKTU3-V-47" value="&amp;nbsp; &amp;nbsp; &amp;nbsp; Altura: FLOAT" style="text;strokeColor=none;fillColor=none;align=left;verticalAlign=top;spacingLeft=4;spacingRight=4;overflow=hidden;rotatable=0;points=[[0,0.5],[1,0.5]];portConstraint=eastwest;whiteSpace=wrap;html=1;" parent="qsIrMADFIpEWMbKTU3-V-43" vertex="1">
          <mxGeometry y="52" width="230" height="26" as="geometry" />
        </mxCell>
        <mxCell id="qsIrMADFIpEWMbKTU3-V-48" value="&amp;nbsp; &amp;nbsp; &amp;nbsp; Etnia: VARCHAR" style="text;strokeColor=none;fillColor=none;align=left;verticalAlign=top;spacingLeft=4;spacingRight=4;overflow=hidden;rotatable=0;points=[[0,0.5],[1,0.5]];portConstraint=eastwest;whiteSpace=wrap;html=1;" parent="qsIrMADFIpEWMbKTU3-V-43" vertex="1">
          <mxGeometry y="78" width="230" height="26" as="geometry" />
        </mxCell>
        <mxCell id="qsIrMADFIpEWMbKTU3-V-49" value="FK cor_id: INT" style="text;strokeColor=none;fillColor=none;align=left;verticalAlign=top;spacingLeft=4;spacingRight=4;overflow=hidden;rotatable=0;points=[[0,0.5],[1,0.5]];portConstraint=eastwest;whiteSpace=wrap;html=1;" parent="qsIrMADFIpEWMbKTU3-V-43" vertex="1">
          <mxGeometry y="104" width="230" height="26" as="geometry" />
        </mxCell>
        <mxCell id="tNdTHDL9R3g4JhnGJnkF-114" value="FK cor_do_cabelo_id: INT" style="text;strokeColor=none;fillColor=none;align=left;verticalAlign=top;spacingLeft=4;spacingRight=4;overflow=hidden;rotatable=0;points=[[0,0.5],[1,0.5]];portConstraint=eastwest;whiteSpace=wrap;html=1;" parent="qsIrMADFIpEWMbKTU3-V-43" vertex="1">
          <mxGeometry y="130" width="230" height="26" as="geometry" />
        </mxCell>
        <mxCell id="tNdTHDL9R3g4JhnGJnkF-115" value="FK tipo_de_cabelo_id: INT" style="text;strokeColor=none;fillColor=none;align=left;verticalAlign=top;spacingLeft=4;spacingRight=4;overflow=hidden;rotatable=0;points=[[0,0.5],[1,0.5]];portConstraint=eastwest;whiteSpace=wrap;html=1;" parent="qsIrMADFIpEWMbKTU3-V-43" vertex="1">
          <mxGeometry y="156" width="230" height="26" as="geometry" />
        </mxCell>
        <mxCell id="tNdTHDL9R3g4JhnGJnkF-116" value="FK cor_dos_olhos_id: INT" style="text;strokeColor=none;fillColor=none;align=left;verticalAlign=top;spacingLeft=4;spacingRight=4;overflow=hidden;rotatable=0;points=[[0,0.5],[1,0.5]];portConstraint=eastwest;whiteSpace=wrap;html=1;" parent="qsIrMADFIpEWMbKTU3-V-43" vertex="1">
          <mxGeometry y="182" width="230" height="26" as="geometry" />
        </mxCell>
        <mxCell id="qsIrMADFIpEWMbKTU3-V-86" value="&amp;nbsp; &amp;nbsp; &amp;nbsp; FotoPerfilEsquerdo: VARCHAR" style="text;strokeColor=none;fillColor=none;align=left;verticalAlign=top;spacingLeft=4;spacingRight=4;overflow=hidden;rotatable=0;points=[[0,0.5],[1,0.5]];portConstraint=eastwest;whiteSpace=wrap;html=1;" parent="qsIrMADFIpEWMbKTU3-V-43" vertex="1">
          <mxGeometry y="208" width="230" height="26" as="geometry" />
        </mxCell>
        <mxCell id="qsIrMADFIpEWMbKTU3-V-89" value="&amp;nbsp; &amp;nbsp; &amp;nbsp; FotoPerfilDireito: VARCHAR" style="text;strokeColor=none;fillColor=none;align=left;verticalAlign=top;spacingLeft=4;spacingRight=4;overflow=hidden;rotatable=0;points=[[0,0.5],[1,0.5]];portConstraint=eastwest;whiteSpace=wrap;html=1;" parent="qsIrMADFIpEWMbKTU3-V-43" vertex="1">
          <mxGeometry y="234" width="230" height="26" as="geometry" />
        </mxCell>
        <mxCell id="qsIrMADFIpEWMbKTU3-V-87" value="&amp;nbsp; &amp;nbsp; &amp;nbsp; FotoFrente: VARCHAR" style="text;strokeColor=none;fillColor=none;align=left;verticalAlign=top;spacingLeft=4;spacingRight=4;overflow=hidden;rotatable=0;points=[[0,0.5],[1,0.5]];portConstraint=eastwest;whiteSpace=wrap;html=1;" parent="qsIrMADFIpEWMbKTU3-V-43" vertex="1">
          <mxGeometry y="260" width="230" height="26" as="geometry" />
        </mxCell>
        <mxCell id="qsIrMADFIpEWMbKTU3-V-51" value="Marca" style="swimlane;fontStyle=1;align=center;verticalAlign=top;childLayout=stackLayout;horizontal=1;startSize=26;horizontalStack=0;resizeParent=1;resizeParentMax=0;resizeLast=0;collapsible=1;marginBottom=0;whiteSpace=wrap;html=1;" parent="1" vertex="1">
          <mxGeometry x="870" y="408" width="213" height="208" as="geometry" />
        </mxCell>
        <mxCell id="tNdTHDL9R3g4JhnGJnkF-141" value="PK Id: INT" style="text;strokeColor=none;fillColor=none;align=left;verticalAlign=top;spacingLeft=4;spacingRight=4;overflow=hidden;rotatable=0;points=[[0,0.5],[1,0.5]];portConstraint=eastwest;whiteSpace=wrap;html=1;" parent="qsIrMADFIpEWMbKTU3-V-51" vertex="1">
          <mxGeometry y="26" width="213" height="26" as="geometry" />
        </mxCell>
        <mxCell id="tNdTHDL9R3g4JhnGJnkF-143" value="&amp;nbsp; &amp;nbsp; &amp;nbsp; CicatrizOuTatuagem: CHAR" style="text;strokeColor=none;fillColor=none;align=left;verticalAlign=top;spacingLeft=4;spacingRight=4;overflow=hidden;rotatable=0;points=[[0,0.5],[1,0.5]];portConstraint=eastwest;whiteSpace=wrap;html=1;" parent="qsIrMADFIpEWMbKTU3-V-51" vertex="1">
          <mxGeometry y="52" width="213" height="26" as="geometry" />
        </mxCell>
        <mxCell id="tNdTHDL9R3g4JhnGJnkF-144" value="&amp;nbsp; &amp;nbsp; &amp;nbsp; Descricao: VARCHAR" style="text;strokeColor=none;fillColor=none;align=left;verticalAlign=top;spacingLeft=4;spacingRight=4;overflow=hidden;rotatable=0;points=[[0,0.5],[1,0.5]];portConstraint=eastwest;whiteSpace=wrap;html=1;" parent="qsIrMADFIpEWMbKTU3-V-51" vertex="1">
          <mxGeometry y="78" width="213" height="26" as="geometry" />
        </mxCell>
        <mxCell id="tNdTHDL9R3g4JhnGJnkF-145" value="&amp;nbsp; &amp;nbsp; &amp;nbsp; ParteDoCorpo: VARCHAR" style="text;strokeColor=none;fillColor=none;align=left;verticalAlign=top;spacingLeft=4;spacingRight=4;overflow=hidden;rotatable=0;points=[[0,0.5],[1,0.5]];portConstraint=eastwest;whiteSpace=wrap;html=1;" parent="qsIrMADFIpEWMbKTU3-V-51" vertex="1">
          <mxGeometry y="104" width="213" height="26" as="geometry" />
        </mxCell>
        <mxCell id="tNdTHDL9R3g4JhnGJnkF-146" value="&amp;nbsp; &amp;nbsp; &amp;nbsp; Foto: VARCHAR" style="text;strokeColor=none;fillColor=none;align=left;verticalAlign=top;spacingLeft=4;spacingRight=4;overflow=hidden;rotatable=0;points=[[0,0.5],[1,0.5]];portConstraint=eastwest;whiteSpace=wrap;html=1;" parent="qsIrMADFIpEWMbKTU3-V-51" vertex="1">
          <mxGeometry y="130" width="213" height="26" as="geometry" />
        </mxCell>
        <mxCell id="tNdTHDL9R3g4JhnGJnkF-147" value="&amp;nbsp; &amp;nbsp; &amp;nbsp; Tipo: VARCHAR" style="text;strokeColor=none;fillColor=none;align=left;verticalAlign=top;spacingLeft=4;spacingRight=4;overflow=hidden;rotatable=0;points=[[0,0.5],[1,0.5]];portConstraint=eastwest;whiteSpace=wrap;html=1;" parent="qsIrMADFIpEWMbKTU3-V-51" vertex="1">
          <mxGeometry y="156" width="213" height="26" as="geometry" />
        </mxCell>
        <mxCell id="qsIrMADFIpEWMbKTU3-V-52" value="FK Aparencia_ID: INT" style="text;strokeColor=none;fillColor=none;align=left;verticalAlign=top;spacingLeft=4;spacingRight=4;overflow=hidden;rotatable=0;points=[[0,0.5],[1,0.5]];portConstraint=eastwest;whiteSpace=wrap;html=1;" parent="qsIrMADFIpEWMbKTU3-V-51" vertex="1">
          <mxGeometry y="182" width="213" height="26" as="geometry" />
        </mxCell>
        <mxCell id="qsIrMADFIpEWMbKTU3-V-63" style="edgeStyle=orthogonalEdgeStyle;rounded=0;orthogonalLoop=1;jettySize=auto;html=1;exitX=0;exitY=0.5;exitDx=0;exitDy=0;entryX=1;entryY=0.5;entryDx=0;entryDy=0;startArrow=ERone;startFill=0;endArrow=ERone;endFill=0;" parent="1" source="qsIrMADFIpEWMbKTU3-V-44" target="qsIrMADFIpEWMbKTU3-V-35" edge="1">
          <mxGeometry relative="1" as="geometry" />
        </mxCell>
        <mxCell id="qsIrMADFIpEWMbKTU3-V-161" value="Antecedente" style="swimlane;fontStyle=1;align=center;verticalAlign=top;childLayout=stackLayout;horizontal=1;startSize=26;horizontalStack=0;resizeParent=1;resizeParentMax=0;resizeLast=0;collapsible=1;marginBottom=0;whiteSpace=wrap;html=1;" parent="1" vertex="1">
          <mxGeometry x="510" y="40" width="230" height="208" as="geometry" />
        </mxCell>
        <mxCell id="qsIrMADFIpEWMbKTU3-V-162" value="PK Id: INT" style="text;strokeColor=none;fillColor=none;align=left;verticalAlign=top;spacingLeft=4;spacingRight=4;overflow=hidden;rotatable=0;points=[[0,0.5],[1,0.5]];portConstraint=eastwest;whiteSpace=wrap;html=1;" parent="qsIrMADFIpEWMbKTU3-V-161" vertex="1">
          <mxGeometry y="26" width="230" height="26" as="geometry" />
        </mxCell>
        <mxCell id="qsIrMADFIpEWMbKTU3-V-167" value="&amp;nbsp; &amp;nbsp; &amp;nbsp; Data: DATE" style="text;strokeColor=none;fillColor=none;align=left;verticalAlign=top;spacingLeft=4;spacingRight=4;overflow=hidden;rotatable=0;points=[[0,0.5],[1,0.5]];portConstraint=eastwest;whiteSpace=wrap;html=1;" parent="qsIrMADFIpEWMbKTU3-V-161" vertex="1">
          <mxGeometry y="52" width="230" height="26" as="geometry" />
        </mxCell>
        <mxCell id="qsIrMADFIpEWMbKTU3-V-170" value="&amp;nbsp; &amp;nbsp; &amp;nbsp; Local: VARCHAR" style="text;strokeColor=none;fillColor=none;align=left;verticalAlign=top;spacingLeft=4;spacingRight=4;overflow=hidden;rotatable=0;points=[[0,0.5],[1,0.5]];portConstraint=eastwest;whiteSpace=wrap;html=1;" parent="qsIrMADFIpEWMbKTU3-V-161" vertex="1">
          <mxGeometry y="78" width="230" height="26" as="geometry" />
        </mxCell>
        <mxCell id="qsIrMADFIpEWMbKTU3-V-171" value="&amp;nbsp; &amp;nbsp; &amp;nbsp; Hora: DATETIME" style="text;strokeColor=none;fillColor=none;align=left;verticalAlign=top;spacingLeft=4;spacingRight=4;overflow=hidden;rotatable=0;points=[[0,0.5],[1,0.5]];portConstraint=eastwest;whiteSpace=wrap;html=1;" parent="qsIrMADFIpEWMbKTU3-V-161" vertex="1">
          <mxGeometry y="104" width="230" height="26" as="geometry" />
        </mxCell>
        <mxCell id="qsIrMADFIpEWMbKTU3-V-172" value="FK acusacao_id: INT" style="text;strokeColor=none;fillColor=none;align=left;verticalAlign=top;spacingLeft=4;spacingRight=4;overflow=hidden;rotatable=0;points=[[0,0.5],[1,0.5]];portConstraint=eastwest;whiteSpace=wrap;html=1;" parent="qsIrMADFIpEWMbKTU3-V-161" vertex="1">
          <mxGeometry y="130" width="230" height="26" as="geometry" />
        </mxCell>
        <mxCell id="qsIrMADFIpEWMbKTU3-V-173" value="&amp;nbsp; &amp;nbsp; &amp;nbsp; Descricao: VARCHAR" style="text;strokeColor=none;fillColor=none;align=left;verticalAlign=top;spacingLeft=4;spacingRight=4;overflow=hidden;rotatable=0;points=[[0,0.5],[1,0.5]];portConstraint=eastwest;whiteSpace=wrap;html=1;" parent="qsIrMADFIpEWMbKTU3-V-161" vertex="1">
          <mxGeometry y="156" width="230" height="26" as="geometry" />
        </mxCell>
        <mxCell id="tNdTHDL9R3g4JhnGJnkF-112" value="FK&amp;nbsp; Criminoso_ID: INT" style="text;strokeColor=none;fillColor=none;align=left;verticalAlign=top;spacingLeft=4;spacingRight=4;overflow=hidden;rotatable=0;points=[[0,0.5],[1,0.5]];portConstraint=eastwest;whiteSpace=wrap;html=1;" parent="qsIrMADFIpEWMbKTU3-V-161" vertex="1">
          <mxGeometry y="182" width="230" height="26" as="geometry" />
        </mxCell>
        <mxCell id="tNdTHDL9R3g4JhnGJnkF-113" style="edgeStyle=orthogonalEdgeStyle;rounded=0;orthogonalLoop=1;jettySize=auto;html=1;exitX=1;exitY=0.5;exitDx=0;exitDy=0;entryX=0;entryY=0.5;entryDx=0;entryDy=0;endArrow=ERoneToMany;endFill=0;startArrow=ERone;startFill=0;" parent="1" source="qsIrMADFIpEWMbKTU3-V-15" target="tNdTHDL9R3g4JhnGJnkF-112" edge="1">
          <mxGeometry relative="1" as="geometry">
            <mxPoint x="440" y="760" as="targetPoint" />
          </mxGeometry>
        </mxCell>
        <mxCell id="tNdTHDL9R3g4JhnGJnkF-142" style="edgeStyle=orthogonalEdgeStyle;rounded=0;orthogonalLoop=1;jettySize=auto;html=1;exitX=1;exitY=0.5;exitDx=0;exitDy=0;entryX=0;entryY=0.5;entryDx=0;entryDy=0;endArrow=ERoneToMany;endFill=0;startArrow=ERone;startFill=0;" parent="1" source="qsIrMADFIpEWMbKTU3-V-44" target="qsIrMADFIpEWMbKTU3-V-52" edge="1">
          <mxGeometry relative="1" as="geometry" />
        </mxCell>
        <mxCell id="hHZBYtkwGL6fNbw005Wh-1" value="EstadoCivil" style="swimlane;fontStyle=1;align=center;verticalAlign=top;childLayout=stackLayout;horizontal=1;startSize=26;horizontalStack=0;resizeParent=1;resizeParentMax=0;resizeLast=0;collapsible=1;marginBottom=0;whiteSpace=wrap;html=1;" vertex="1" parent="1">
          <mxGeometry x="-200" y="235" width="220" height="78" as="geometry" />
        </mxCell>
        <mxCell id="hHZBYtkwGL6fNbw005Wh-2" value="PK Id: INT" style="text;strokeColor=none;fillColor=none;align=left;verticalAlign=top;spacingLeft=4;spacingRight=4;overflow=hidden;rotatable=0;points=[[0,0.5],[1,0.5]];portConstraint=eastwest;whiteSpace=wrap;html=1;" vertex="1" parent="hHZBYtkwGL6fNbw005Wh-1">
          <mxGeometry y="26" width="220" height="26" as="geometry" />
        </mxCell>
        <mxCell id="hHZBYtkwGL6fNbw005Wh-3" value="&amp;nbsp; &amp;nbsp; &amp;nbsp; estado: VARCHAR" style="text;strokeColor=none;fillColor=none;align=left;verticalAlign=top;spacingLeft=4;spacingRight=4;overflow=hidden;rotatable=0;points=[[0,0.5],[1,0.5]];portConstraint=eastwest;whiteSpace=wrap;html=1;" vertex="1" parent="hHZBYtkwGL6fNbw005Wh-1">
          <mxGeometry y="52" width="220" height="26" as="geometry" />
        </mxCell>
        <mxCell id="hHZBYtkwGL6fNbw005Wh-9" style="edgeStyle=orthogonalEdgeStyle;rounded=0;orthogonalLoop=1;jettySize=auto;html=1;exitX=1;exitY=0.5;exitDx=0;exitDy=0;entryX=0;entryY=0.5;entryDx=0;entryDy=0;endArrow=ERone;endFill=0;startArrow=ERone;startFill=0;" edge="1" parent="1" source="hHZBYtkwGL6fNbw005Wh-3" target="qsIrMADFIpEWMbKTU3-V-29">
          <mxGeometry relative="1" as="geometry" />
        </mxCell>
        <mxCell id="hHZBYtkwGL6fNbw005Wh-10" value="GrauDeEscolaridade" style="swimlane;fontStyle=1;align=center;verticalAlign=top;childLayout=stackLayout;horizontal=1;startSize=26;horizontalStack=0;resizeParent=1;resizeParentMax=0;resizeLast=0;collapsible=1;marginBottom=0;whiteSpace=wrap;html=1;" vertex="1" parent="1">
          <mxGeometry x="-200" y="330" width="220" height="78" as="geometry" />
        </mxCell>
        <mxCell id="hHZBYtkwGL6fNbw005Wh-11" value="PK Id: INT" style="text;strokeColor=none;fillColor=none;align=left;verticalAlign=top;spacingLeft=4;spacingRight=4;overflow=hidden;rotatable=0;points=[[0,0.5],[1,0.5]];portConstraint=eastwest;whiteSpace=wrap;html=1;" vertex="1" parent="hHZBYtkwGL6fNbw005Wh-10">
          <mxGeometry y="26" width="220" height="26" as="geometry" />
        </mxCell>
        <mxCell id="hHZBYtkwGL6fNbw005Wh-12" value="&amp;nbsp; &amp;nbsp; &amp;nbsp; grau: VARCHAR" style="text;strokeColor=none;fillColor=none;align=left;verticalAlign=top;spacingLeft=4;spacingRight=4;overflow=hidden;rotatable=0;points=[[0,0.5],[1,0.5]];portConstraint=eastwest;whiteSpace=wrap;html=1;" vertex="1" parent="hHZBYtkwGL6fNbw005Wh-10">
          <mxGeometry y="52" width="220" height="26" as="geometry" />
        </mxCell>
        <mxCell id="hHZBYtkwGL6fNbw005Wh-13" style="edgeStyle=orthogonalEdgeStyle;rounded=0;orthogonalLoop=1;jettySize=auto;html=1;entryX=0;entryY=0.5;entryDx=0;entryDy=0;startArrow=ERone;startFill=0;endArrow=ERone;endFill=0;" edge="1" parent="1" source="hHZBYtkwGL6fNbw005Wh-12" target="qsIrMADFIpEWMbKTU3-V-30">
          <mxGeometry relative="1" as="geometry" />
        </mxCell>
        <mxCell id="hHZBYtkwGL6fNbw005Wh-14" value="Genero" style="swimlane;fontStyle=1;align=center;verticalAlign=top;childLayout=stackLayout;horizontal=1;startSize=26;horizontalStack=0;resizeParent=1;resizeParentMax=0;resizeLast=0;collapsible=1;marginBottom=0;whiteSpace=wrap;html=1;" vertex="1" parent="1">
          <mxGeometry x="-200" y="442" width="220" height="78" as="geometry" />
        </mxCell>
        <mxCell id="hHZBYtkwGL6fNbw005Wh-15" value="PK Id: INT" style="text;strokeColor=none;fillColor=none;align=left;verticalAlign=top;spacingLeft=4;spacingRight=4;overflow=hidden;rotatable=0;points=[[0,0.5],[1,0.5]];portConstraint=eastwest;whiteSpace=wrap;html=1;" vertex="1" parent="hHZBYtkwGL6fNbw005Wh-14">
          <mxGeometry y="26" width="220" height="26" as="geometry" />
        </mxCell>
        <mxCell id="hHZBYtkwGL6fNbw005Wh-16" value="&amp;nbsp; &amp;nbsp; &amp;nbsp; genero: VARCHAR" style="text;strokeColor=none;fillColor=none;align=left;verticalAlign=top;spacingLeft=4;spacingRight=4;overflow=hidden;rotatable=0;points=[[0,0.5],[1,0.5]];portConstraint=eastwest;whiteSpace=wrap;html=1;" vertex="1" parent="hHZBYtkwGL6fNbw005Wh-14">
          <mxGeometry y="52" width="220" height="26" as="geometry" />
        </mxCell>
        <mxCell id="hHZBYtkwGL6fNbw005Wh-17" style="edgeStyle=orthogonalEdgeStyle;rounded=0;orthogonalLoop=1;jettySize=auto;html=1;endArrow=ERone;endFill=0;startArrow=ERone;startFill=0;" edge="1" parent="1" source="hHZBYtkwGL6fNbw005Wh-16" target="qsIrMADFIpEWMbKTU3-V-33">
          <mxGeometry relative="1" as="geometry" />
        </mxCell>
        <mxCell id="hHZBYtkwGL6fNbw005Wh-27" value="Cor" style="swimlane;fontStyle=1;align=center;verticalAlign=top;childLayout=stackLayout;horizontal=1;startSize=26;horizontalStack=0;resizeParent=1;resizeParentMax=0;resizeLast=0;collapsible=1;marginBottom=0;whiteSpace=wrap;html=1;" vertex="1" parent="1">
          <mxGeometry x="940" y="668" width="220" height="78" as="geometry" />
        </mxCell>
        <mxCell id="hHZBYtkwGL6fNbw005Wh-28" value="PK Id: INT" style="text;strokeColor=none;fillColor=none;align=left;verticalAlign=top;spacingLeft=4;spacingRight=4;overflow=hidden;rotatable=0;points=[[0,0.5],[1,0.5]];portConstraint=eastwest;whiteSpace=wrap;html=1;" vertex="1" parent="hHZBYtkwGL6fNbw005Wh-27">
          <mxGeometry y="26" width="220" height="26" as="geometry" />
        </mxCell>
        <mxCell id="hHZBYtkwGL6fNbw005Wh-29" value="&amp;nbsp; &amp;nbsp; &amp;nbsp; cor: VARCHAR" style="text;strokeColor=none;fillColor=none;align=left;verticalAlign=top;spacingLeft=4;spacingRight=4;overflow=hidden;rotatable=0;points=[[0,0.5],[1,0.5]];portConstraint=eastwest;whiteSpace=wrap;html=1;" vertex="1" parent="hHZBYtkwGL6fNbw005Wh-27">
          <mxGeometry y="52" width="220" height="26" as="geometry" />
        </mxCell>
        <mxCell id="hHZBYtkwGL6fNbw005Wh-30" style="edgeStyle=orthogonalEdgeStyle;rounded=0;orthogonalLoop=1;jettySize=auto;html=1;exitX=1;exitY=0.5;exitDx=0;exitDy=0;entryX=0;entryY=0.5;entryDx=0;entryDy=0;endArrow=ERone;endFill=0;startArrow=ERone;startFill=0;" edge="1" parent="1" source="qsIrMADFIpEWMbKTU3-V-49" target="hHZBYtkwGL6fNbw005Wh-27">
          <mxGeometry relative="1" as="geometry" />
        </mxCell>
        <mxCell id="hHZBYtkwGL6fNbw005Wh-31" value="CorDoCabelo" style="swimlane;fontStyle=1;align=center;verticalAlign=top;childLayout=stackLayout;horizontal=1;startSize=26;horizontalStack=0;resizeParent=1;resizeParentMax=0;resizeLast=0;collapsible=1;marginBottom=0;whiteSpace=wrap;html=1;" vertex="1" parent="1">
          <mxGeometry x="940" y="790" width="220" height="78" as="geometry" />
        </mxCell>
        <mxCell id="hHZBYtkwGL6fNbw005Wh-32" value="PK Id: INT" style="text;strokeColor=none;fillColor=none;align=left;verticalAlign=top;spacingLeft=4;spacingRight=4;overflow=hidden;rotatable=0;points=[[0,0.5],[1,0.5]];portConstraint=eastwest;whiteSpace=wrap;html=1;" vertex="1" parent="hHZBYtkwGL6fNbw005Wh-31">
          <mxGeometry y="26" width="220" height="26" as="geometry" />
        </mxCell>
        <mxCell id="hHZBYtkwGL6fNbw005Wh-33" value="&amp;nbsp; &amp;nbsp; &amp;nbsp; cor: VARCHAR" style="text;strokeColor=none;fillColor=none;align=left;verticalAlign=top;spacingLeft=4;spacingRight=4;overflow=hidden;rotatable=0;points=[[0,0.5],[1,0.5]];portConstraint=eastwest;whiteSpace=wrap;html=1;" vertex="1" parent="hHZBYtkwGL6fNbw005Wh-31">
          <mxGeometry y="52" width="220" height="26" as="geometry" />
        </mxCell>
        <mxCell id="hHZBYtkwGL6fNbw005Wh-34" style="edgeStyle=orthogonalEdgeStyle;rounded=0;orthogonalLoop=1;jettySize=auto;html=1;exitX=1;exitY=0.5;exitDx=0;exitDy=0;entryX=0;entryY=0.5;entryDx=0;entryDy=0;startArrow=ERone;startFill=0;endArrow=ERone;endFill=0;" edge="1" parent="1" source="tNdTHDL9R3g4JhnGJnkF-114" target="hHZBYtkwGL6fNbw005Wh-32">
          <mxGeometry relative="1" as="geometry" />
        </mxCell>
        <mxCell id="hHZBYtkwGL6fNbw005Wh-35" value="TipoDeCabelo" style="swimlane;fontStyle=1;align=center;verticalAlign=top;childLayout=stackLayout;horizontal=1;startSize=26;horizontalStack=0;resizeParent=1;resizeParentMax=0;resizeLast=0;collapsible=1;marginBottom=0;whiteSpace=wrap;html=1;" vertex="1" parent="1">
          <mxGeometry x="880" y="900" width="220" height="78" as="geometry" />
        </mxCell>
        <mxCell id="hHZBYtkwGL6fNbw005Wh-36" value="PK Id: INT" style="text;strokeColor=none;fillColor=none;align=left;verticalAlign=top;spacingLeft=4;spacingRight=4;overflow=hidden;rotatable=0;points=[[0,0.5],[1,0.5]];portConstraint=eastwest;whiteSpace=wrap;html=1;" vertex="1" parent="hHZBYtkwGL6fNbw005Wh-35">
          <mxGeometry y="26" width="220" height="26" as="geometry" />
        </mxCell>
        <mxCell id="hHZBYtkwGL6fNbw005Wh-37" value="&amp;nbsp; &amp;nbsp; &amp;nbsp; tipo: VARCHAR" style="text;strokeColor=none;fillColor=none;align=left;verticalAlign=top;spacingLeft=4;spacingRight=4;overflow=hidden;rotatable=0;points=[[0,0.5],[1,0.5]];portConstraint=eastwest;whiteSpace=wrap;html=1;" vertex="1" parent="hHZBYtkwGL6fNbw005Wh-35">
          <mxGeometry y="52" width="220" height="26" as="geometry" />
        </mxCell>
        <mxCell id="hHZBYtkwGL6fNbw005Wh-38" style="edgeStyle=orthogonalEdgeStyle;rounded=0;orthogonalLoop=1;jettySize=auto;html=1;exitX=1;exitY=0.5;exitDx=0;exitDy=0;entryX=0;entryY=0.5;entryDx=0;entryDy=0;endArrow=ERone;endFill=0;startArrow=ERone;startFill=0;" edge="1" parent="1" source="tNdTHDL9R3g4JhnGJnkF-115" target="hHZBYtkwGL6fNbw005Wh-36">
          <mxGeometry relative="1" as="geometry" />
        </mxCell>
        <mxCell id="hHZBYtkwGL6fNbw005Wh-39" value="CorDosOlhos" style="swimlane;fontStyle=1;align=center;verticalAlign=top;childLayout=stackLayout;horizontal=1;startSize=26;horizontalStack=0;resizeParent=1;resizeParentMax=0;resizeLast=0;collapsible=1;marginBottom=0;whiteSpace=wrap;html=1;" vertex="1" parent="1">
          <mxGeometry x="827" y="1020" width="220" height="78" as="geometry" />
        </mxCell>
        <mxCell id="hHZBYtkwGL6fNbw005Wh-40" value="PK Id: INT" style="text;strokeColor=none;fillColor=none;align=left;verticalAlign=top;spacingLeft=4;spacingRight=4;overflow=hidden;rotatable=0;points=[[0,0.5],[1,0.5]];portConstraint=eastwest;whiteSpace=wrap;html=1;" vertex="1" parent="hHZBYtkwGL6fNbw005Wh-39">
          <mxGeometry y="26" width="220" height="26" as="geometry" />
        </mxCell>
        <mxCell id="hHZBYtkwGL6fNbw005Wh-41" value="&amp;nbsp; &amp;nbsp; &amp;nbsp; cor: VARCHAR" style="text;strokeColor=none;fillColor=none;align=left;verticalAlign=top;spacingLeft=4;spacingRight=4;overflow=hidden;rotatable=0;points=[[0,0.5],[1,0.5]];portConstraint=eastwest;whiteSpace=wrap;html=1;" vertex="1" parent="hHZBYtkwGL6fNbw005Wh-39">
          <mxGeometry y="52" width="220" height="26" as="geometry" />
        </mxCell>
        <mxCell id="hHZBYtkwGL6fNbw005Wh-42" style="edgeStyle=orthogonalEdgeStyle;rounded=0;orthogonalLoop=1;jettySize=auto;html=1;exitX=1;exitY=0.5;exitDx=0;exitDy=0;entryX=0;entryY=0.5;entryDx=0;entryDy=0;startArrow=ERone;startFill=0;endArrow=ERone;endFill=0;" edge="1" parent="1" source="tNdTHDL9R3g4JhnGJnkF-116" target="hHZBYtkwGL6fNbw005Wh-39">
          <mxGeometry relative="1" as="geometry" />
        </mxCell>
        <mxCell id="hHZBYtkwGL6fNbw005Wh-44" value="Acusacao" style="swimlane;fontStyle=1;align=center;verticalAlign=top;childLayout=stackLayout;horizontal=1;startSize=26;horizontalStack=0;resizeParent=1;resizeParentMax=0;resizeLast=0;collapsible=1;marginBottom=0;whiteSpace=wrap;html=1;" vertex="1" parent="1">
          <mxGeometry x="830" y="145" width="220" height="78" as="geometry" />
        </mxCell>
        <mxCell id="hHZBYtkwGL6fNbw005Wh-45" value="PK Id: INT" style="text;strokeColor=none;fillColor=none;align=left;verticalAlign=top;spacingLeft=4;spacingRight=4;overflow=hidden;rotatable=0;points=[[0,0.5],[1,0.5]];portConstraint=eastwest;whiteSpace=wrap;html=1;" vertex="1" parent="hHZBYtkwGL6fNbw005Wh-44">
          <mxGeometry y="26" width="220" height="26" as="geometry" />
        </mxCell>
        <mxCell id="hHZBYtkwGL6fNbw005Wh-46" value="&amp;nbsp; &amp;nbsp; &amp;nbsp; cor: VARCHAR" style="text;strokeColor=none;fillColor=none;align=left;verticalAlign=top;spacingLeft=4;spacingRight=4;overflow=hidden;rotatable=0;points=[[0,0.5],[1,0.5]];portConstraint=eastwest;whiteSpace=wrap;html=1;" vertex="1" parent="hHZBYtkwGL6fNbw005Wh-44">
          <mxGeometry y="52" width="220" height="26" as="geometry" />
        </mxCell>
        <mxCell id="hHZBYtkwGL6fNbw005Wh-47" style="edgeStyle=orthogonalEdgeStyle;rounded=0;orthogonalLoop=1;jettySize=auto;html=1;exitX=1;exitY=0.5;exitDx=0;exitDy=0;entryX=0;entryY=0.5;entryDx=0;entryDy=0;startArrow=ERone;startFill=0;endArrow=ERone;endFill=0;" edge="1" parent="1" source="qsIrMADFIpEWMbKTU3-V-172" target="hHZBYtkwGL6fNbw005Wh-45">
          <mxGeometry relative="1" as="geometry" />
        </mxCell>
      </root>
    </mxGraphModel>
  </diagram>
</mxfile>
